<svg width="17" height="17" viewBox="0 0 17 17" fill="none" xmlns="http://www.w3.org/2000/svg">
<path d="M6 9.33334C5.33696 9.33334 4.70107 9.06995 4.23223 8.60111C3.76339 8.13227 3.5 7.49638 3.5 6.83334C3.5 6.1703 3.76339 5.53442 4.23223 5.06558C4.70107 4.59674 5.33696 4.33334 6 4.33334C6.66304 4.33334 7.29893 4.59674 7.76777 5.06558C8.23661 5.53442 8.5 6.1703 8.5 6.83334C8.5 7.49638 8.23661 8.13227 7.76777 8.60111C7.29893 9.06995 6.66304 9.33334 6 9.33334Z" fill="#6CD4FF" stroke="#6CD4FF" stroke-width="2" stroke-linecap="round"/>
<path d="M1 16V15.1667C1 14.2826 1.35119 13.4348 1.97631 12.8097C2.60143 12.1845 3.44928 11.8333 4.33333 11.8333H7.66667C8.55072 11.8333 9.39857 12.1845 10.0237 12.8097C10.6488 13.4348 11 14.2826 11 15.1667V16" fill="#6CD4FF"/>
<path d="M1 16V15.1667C1 14.2826 1.35119 13.4348 1.97631 12.8097C2.60143 12.1845 3.44928 11.8333 4.33333 11.8333H7.66667C8.55072 11.8333 9.39857 12.1845 10.0237 12.8097C10.6488 13.4348 11 14.2826 11 15.1667V16" stroke="#6CD4FF" stroke-width="2" stroke-linecap="round"/>
<path d="M13.5 1V6V1Z" fill="#6CD4FF"/>
<path d="M13.5 1V6" stroke="#6CD4FF" stroke-width="2" stroke-linecap="round"/>
<path d="M11 3.49998H16H11Z" fill="#6CD4FF"/>
<path d="M11 3.49998H16" stroke="#6CD4FF" stroke-width="2" stroke-linecap="round"/>
</svg>
