<svg width="15" height="8" viewBox="0 0 15 8" fill="none" xmlns="http://www.w3.org/2000/svg">
<path d="M14.3786 0.247993C14.2676 0.13836 14.1181 0.0765085 13.9621 0.0756606C13.806 0.0748126 13.6559 0.135036 13.5436 0.243455L7.26189 6.30066L1.04759 0.175543C0.936561 0.0659097 0.787052 0.00405789 0.631019 0.0032099C0.474988 0.00236191 0.324814 0.062585 0.212601 0.171005C0.157885 0.223703 0.11428 0.286829 0.0843602 0.356657C0.0544412 0.426484 0.038815 0.501598 0.0384021 0.577564C0.0379893 0.65353 0.0527981 0.728809 0.0819565 0.798958C0.111116 0.869106 0.154031 0.932703 0.208172 0.985993L6.81912 7.49952C6.93521 7.61392 7.09141 7.67844 7.2544 7.67932C7.41738 7.68021 7.57427 7.61739 7.6916 7.50426L14.373 1.06297C14.4277 1.01028 14.4713 0.94715 14.5012 0.877322C14.5311 0.807495 14.5467 0.732381 14.5472 0.656415C14.5476 0.580449 14.5328 0.50517 14.5036 0.435021C14.4744 0.364873 14.4315 0.301277 14.3774 0.247987L14.3786 0.247993Z" fill="#2CB2A8"/>
</svg>
