<svg width="15" height="15" viewBox="0 0 15 15" fill="none" xmlns="http://www.w3.org/2000/svg">
<path fill-rule="evenodd" clip-rule="evenodd" d="M6.77341 11.759L3.22046 11.7711V8.18348L10.9769 0.455847C11.5807 -0.150734 12.6427 -0.153974 13.2513 0.458277L14.5282 1.74271C14.8326 2.04883 15 2.45538 15 2.88784C15 3.3203 14.8326 3.72685 14.5282 4.03298L6.77341 11.759ZM13.3922 2.88541L12.1129 1.60341L10.8296 2.88298L12.1065 4.1666L13.3922 2.88541ZM9.6855 4.02164L4.83068 8.8589V10.1458L6.10839 10.1417L10.9624 5.30607L9.6855 4.02164ZM12.8818 15H1.61022C0.722184 15 0 14.2736 0 13.3803V2.04232C0 1.14905 0.722184 0.422607 1.61022 0.422607H8.73303L7.12281 2.04232H1.61022V13.3803H4.00865C4.02165 13.3807 4.03447 13.3825 4.0472 13.3843C4.06126 13.3864 4.07521 13.3884 4.08916 13.3884C4.09962 13.3884 4.11029 13.3864 4.12096 13.3843C4.13163 13.3823 4.14229 13.3803 4.15276 13.3803H12.8818V7.98017L14.492 6.36046V13.3803C14.492 14.2736 13.7698 15 12.8818 15Z" fill="#6CD4FF"/>
</svg>
