<svg width="15" height="15" viewBox="0 0 15 15" fill="none" xmlns="http://www.w3.org/2000/svg">
<path d="M7.5 0L7.08577 0.01875L9.47699 2.4L10.3243 1.5625C12.364 2.54375 13.8326 4.525 14.0586 6.875H15C14.6799 3.025 11.4477 0 7.5 0ZM7.5 2.5C6.2887 2.5 5.30335 3.48125 5.30335 4.6875C5.30335 5.89375 6.2887 6.875 7.5 6.875C8.7113 6.875 9.69665 5.89375 9.69665 4.6875C9.69665 3.48125 8.7113 2.5 7.5 2.5ZM0 8.125C0.320084 11.975 3.5523 15 7.5 15L7.91423 14.9812L5.52301 12.6L4.67573 13.4375C2.63598 12.4625 1.16736 10.475 0.941423 8.125H0ZM7.5 8.125C5.07113 8.125 3.10669 9.10625 3.10669 10.3125V11.25H11.8933V10.3125C11.8933 9.10625 9.92887 8.125 7.5 8.125Z" fill="#6CD4FF"/>
</svg>
