<svg width="15" height="15" viewBox="0 0 15 15" fill="none" xmlns="http://www.w3.org/2000/svg">
<path d="M14.9664 0.642935C15.0005 0.557751 15.0089 0.464433 14.9904 0.37455C14.972 0.284668 14.9276 0.202172 14.8627 0.137292C14.7978 0.0724119 14.7153 0.0279998 14.6255 0.00956178C14.5356 -0.00887623 14.4423 -0.0005293 14.3571 0.0335678L0.71974 5.48881H0.718803L0.295068 5.65756C0.214811 5.68957 0.144966 5.74315 0.0932456 5.81237C0.0415256 5.88159 0.00994443 5.96375 0.00199045 6.04979C-0.00596353 6.13583 0.0100193 6.2224 0.0481734 6.29993C0.0863275 6.37745 0.145168 6.44293 0.218195 6.48911L0.602557 6.73286L0.603494 6.73473L5.28614 9.71407L8.26542 14.3968L8.26729 14.3987L8.51103 14.7831C8.55737 14.8558 8.62287 14.9144 8.70034 14.9523C8.77781 14.9902 8.86423 15.006 8.95011 14.998C9.03598 14.9899 9.11796 14.9583 9.18704 14.9067C9.25612 14.855 9.30961 14.7853 9.34163 14.7053L14.9664 0.642935ZM13.2481 2.41479L6.22267 9.44032L6.02112 9.12345C5.98419 9.06531 5.9349 9.01601 5.87675 8.97908L5.55988 8.77752L12.5853 1.75198L13.6896 1.31043L13.249 2.41479H13.2481Z" fill="#6CD4FF"/>
</svg>
