<svg width="15" height="15" viewBox="0 0 15 15" fill="none" xmlns="http://www.w3.org/2000/svg">
<path d="M13.5 0H1.5C0.67275 0 0 0.7475 0 1.66667V13.3333C0 14.2525 0.67275 15 1.5 15H13.5C14.3273 15 15 14.2525 15 13.3333V1.66667C15 0.7475 14.3273 0 13.5 0ZM13.5007 5C13.5 5 13.5 5 13.5007 5H13.152L11.1517 1.66667H13.5L13.5007 5ZM10.125 10L6 12.5V7.5L10.125 10ZM9.402 5L7.40175 1.66667H9.34875L11.349 5H9.402ZM7.599 5H5.652L3.65175 1.66667H5.59875L7.599 5ZM1.5 1.66667H1.84875L3.849 5H1.5V1.66667Z" fill="#6CD4FF"/>
</svg>
